<svg width="35" height="36" viewBox="0 0 35 36" fill="none" xmlns="http://www.w3.org/2000/svg">
<g clip-path="url(#clip0_4_10)">
<path fill-rule="evenodd" clip-rule="evenodd" d="M12.0003 0.451538C10.0259 0.451538 8.13251 1.23583 6.73646 2.63189L0 9.3683V12.4518C0 14.6303 0.93576 16.5902 2.42726 17.9515C0.93576 19.3129 0 21.2728 0 23.4513V26.5348L6.73646 33.2712C8.13251 34.6673 10.0259 35.4515 12.0003 35.4515C14.1788 35.4515 16.1387 34.5158 17.5 33.0243C18.8613 34.5158 20.8212 35.4515 22.9997 35.4515C24.9741 35.4515 26.8675 34.6673 28.2635 33.2712L35 26.5348V23.4513C35 21.2728 34.0643 19.3129 32.5728 17.9515C34.0643 16.5902 35 14.6303 35 12.4518V9.3683L28.2635 2.63189C26.8675 1.23583 24.9741 0.451538 22.9997 0.451538C20.8212 0.451538 18.8613 1.3873 17.5 2.87879C16.1387 1.3873 14.1788 0.451538 12.0003 0.451538ZM22.5389 17.9515C22.455 17.875 22.3727 17.7963 22.292 17.7156L17.5 12.9236L12.708 17.7156C12.6273 17.7963 12.545 17.875 12.4611 17.9515C12.545 18.0281 12.6273 18.1068 12.708 18.1874L17.5 22.9795L22.292 18.1874C22.3727 18.1068 22.455 18.0281 22.5389 17.9515ZM19.4444 26.5348V28.0074C19.4444 29.9709 21.0362 31.5627 22.9997 31.5627C23.9426 31.5627 24.8469 31.1881 25.5137 30.5213L31.1111 24.9239V23.4513C31.1111 21.4878 29.5194 19.896 27.5558 19.896C26.6129 19.896 25.7086 20.2705 25.0419 20.9373L19.4444 26.5348ZM15.5556 26.5348L9.95811 20.9373C9.29136 20.2705 8.38708 19.896 7.44417 19.896C5.48064 19.896 3.88889 21.4878 3.88889 23.4513V24.9239L9.48631 30.5213C10.1531 31.1881 11.0574 31.5627 12.0003 31.5627C13.9638 31.5627 15.5556 29.9709 15.5556 28.0074V26.5348ZM15.5556 7.8957V9.3683L9.95811 14.9658C9.29136 15.6325 8.38708 16.0071 7.44417 16.0071C5.48064 16.0071 3.88889 14.4153 3.88889 12.4518V10.9792L9.48631 5.38174C10.1531 4.715 11.0574 4.34043 12.0003 4.34043C13.9638 4.34043 15.5556 5.93218 15.5556 7.8957ZM25.0419 14.9658L19.4444 9.3683V7.8957C19.4444 5.93218 21.0362 4.34043 22.9997 4.34043C23.9426 4.34043 24.8469 4.715 25.5137 5.38174L31.1111 10.9792V12.4518C31.1111 14.4153 29.5194 16.0071 27.5558 16.0071C26.6129 16.0071 25.7086 15.6325 25.0419 14.9658Z" fill="black"/>
</g>
<defs>
<clipPath id="clip0_4_10">
<rect width="35" height="35.875" fill="white"/>
</clipPath>
</defs>
</svg>
